<svg xmlns="http://www.w3.org/2000/svg" width="16" height="16" viewBox="0 0 16 16">
    <g fill="#FFF" fill-rule="evenodd">
        <path d="M8 15.6c-3.571 0-6.618-2.429-7.41-5.906-.05-.216.085-.43.301-.479.215-.053.43.085.479.301C2.078 12.627 4.804 14.8 8 14.8c3.75 0 6.8-3.05 6.8-6.8S11.75 1.2 8 1.2c-2.53 0-4.836 1.391-6.018 3.632-.104.195-.344.269-.541.167-.195-.103-.27-.345-.167-.54C2.595 1.954 5.172.4 8 .4c4.19 0 7.6 3.41 7.6 7.6 0 4.19-3.41 7.6-7.6 7.6"/>
        <path d="M4.4 5.6H1.2c-.22 0-.4-.18-.4-.4V2c0-.22.18-.4.4-.4.22 0 .4.18.4.4v2.8h2.8c.22 0 .4.18.4.4 0 .22-.18.4-.4.4M10.8 11.267c-.087 0-.175-.028-.248-.087l-3.2-2.533c-.096-.076-.152-.191-.152-.314V4.4c0-.221.179-.4.4-.4.221 0 .4.179.4.4v3.74l3.048 2.413c.173.137.203.389.066.563-.08.099-.197.15-.314.15"/>
    </g>
</svg>
