<svg xmlns="http://www.w3.org/2000/svg" width="16" height="16" viewBox="0 0 16 16">
    <path fill="#FFF" d="M15.634 6.914c.314-.304.426-.752.29-1.168-.136-.416-.49-.712-.926-.775l-3.869-.56c-.165-.023-.307-.126-.38-.275L9.018.65C8.823.258 8.428.015 7.99.015c-.439 0-.833.243-1.027.635l-1.73 3.486c-.074.149-.217.252-.381.276l-3.87.559c-.435.063-.789.36-.925.775-.136.416-.025.864.29 1.168l2.8 2.714c.119.116.174.282.145.445l-.66 3.832c-.075.43.1.857.455 1.114.356.258.818.291 1.207.087l3.46-1.809c.148-.077.324-.077.472 0l3.46 1.81c.17.088.353.131.535.131.236 0 .472-.073.673-.219.355-.257.53-.683.455-1.114l-.66-3.831c-.029-.164.026-.33.145-.446l2.8-2.714zm-3.576 3.267l.66 3.832c.034.193-.041.377-.2.492-.16.115-.359.129-.533.038l-3.461-1.809c-.167-.087-.35-.13-.534-.13-.183 0-.366.043-.533.13l-3.46 1.81c-.175.09-.374.076-.533-.039-.16-.115-.235-.3-.202-.492l.661-3.832c.064-.37-.06-.747-.33-1.008l-2.8-2.714c-.14-.137-.189-.33-.127-.516.06-.186.213-.314.408-.343l3.869-.559c.373-.054.696-.286.863-.623L7.536.932c.087-.176.257-.28.454-.28s.367.104.454.28l1.73 3.486c.167.337.49.57.863.623l3.87.56c.194.028.347.156.408.342.06.186.013.379-.128.516l-2.8 2.713c-.27.262-.393.64-.33 1.01z"/>
</svg>
