<svg xmlns="http://www.w3.org/2000/svg" width="16" height="18" viewBox="0 0 16 18">
    <g fill="#FFF">
        <path d="M14.038.322H4.259c-.9 0-1.63.73-1.63 1.63v10.104c0 .18.146.326.326.326.18 0 .326-.146.326-.326V1.952c0-.54.438-.978.978-.978h9.779c.54 0 .977.438.977.978v13.69c0 .54-.437.977-.977.977s-.978-.438-.978-.978v-1.63c0-.36-.292-.651-.652-.651H.674c-.36 0-.652.292-.652.652v1.63c0 .9.73 1.63 1.63 1.63h12.386c.9 0 1.63-.73 1.63-1.63V1.951c0-.9-.73-1.63-1.63-1.63zM1.652 16.619c-.54 0-.978-.438-.978-.978v-1.63h11.734v1.63c0 .353.114.696.326.978H1.652z"/>
        <path d="M12.408 4.233c.18 0 .326-.146.326-.326 0-.18-.146-.326-.326-.326H7.193c-.18 0-.326.146-.326.326 0 .18.146.326.326.326h5.215zM5.237 5.863c0 .18.146.326.326.326h6.845c.18 0 .326-.146.326-.326 0-.18-.146-.326-.326-.326H5.563c-.18 0-.326.146-.326.326zM5.563 8.145h6.845c.18 0 .326-.146.326-.326 0-.18-.146-.326-.326-.326H5.563c-.18 0-.326.146-.326.326 0 .18.146.326.326.326zM5.563 10.1h6.845c.18 0 .326-.146.326-.326 0-.18-.146-.326-.326-.326H5.563c-.18 0-.326.146-.326.326 0 .18.146.326.326.326zM5.563 12.056h5.541c.18 0 .326-.146.326-.326 0-.18-.146-.326-.326-.326H5.563c-.18 0-.326.146-.326.326 0 .18.146.326.326.326z"/>
    </g>
</svg>
