<?xml version="1.0" encoding="UTF-8"?>
<svg width="16px" height="10px" viewBox="0 0 16 10" version="1.1" xmlns="http://www.w3.org/2000/svg" xmlns:xlink="http://www.w3.org/1999/xlink">
    <!-- Generator: Sketch 58 (84663) - https://sketch.com -->
    <title>limits</title>
    <desc>Created with Sketch.</desc>
    <g id="Page-1" stroke="none" stroke-width="1" fill="none" fill-rule="evenodd">
        <g id="limits.ca95c6f6a07b3be88be8" fill="#FFFFFF" fill-rule="nonzero">
            <path d="M14.796,0.027 L1.204,0.027 C0.54,0.027 0,0.567 0,1.23 L0,8.456 C0,9.12 0.54,9.66 1.204,9.66 L14.796,9.66 C15.46,9.66 16,9.12 16,8.456 L16,1.23 C16,0.566 15.46,0.026 14.796,0.026 L14.796,0.027 Z M14.968,8.457 C14.9669194,8.55154177 14.8905418,8.62791942 14.796,8.629 L1.204,8.629 C1.10945823,8.62791942 1.03308058,8.55154177 1.032,8.457 L1.032,1.23 C1.032,1.137 1.112,1.058 1.204,1.058 L14.796,1.058 C14.889,1.058 14.968,1.137 14.968,1.23 L14.968,8.456 L14.968,8.457 Z" id="Shape"></path>
            <path d="M1.824,0.37 L1.824,1.145 C1.82617285,1.32830042 1.75424725,1.50471396 1.62453107,1.63424187 C1.49481489,1.76376978 1.31829707,1.83543908 1.135,1.833 L0.38,1.833 L0.38,2.865 L1.136,2.865 C2.086,2.865 2.856,2.093 2.856,1.145 L2.856,0.37 L1.825,0.37 L1.824,0.37 Z M14.882,1.833 C14.6988752,1.83516739 14.5226176,1.76337808 14.3931198,1.63388023 C14.2636219,1.50438239 14.1918326,1.32812478 14.194,1.145 L14.194,0.37 L13.16,0.37 L13.16,1.144 C13.16,2.092 13.932,2.864 14.88,2.864 L15.655,2.864 L15.655,1.833 L14.881,1.833 L14.882,1.833 Z M1.153,6.822 L0.379,6.822 L0.379,7.854 L1.153,7.854 C1.33630042,7.85182715 1.51271396,7.92375275 1.64224187,8.05346893 C1.77176978,8.18318511 1.84343908,8.35970293 1.841,8.543 L1.841,9.317 L2.873,9.317 L2.873,8.543 C2.873,7.594 2.101,6.823 1.153,6.823 L1.153,6.822 Z M14.882,6.822 C13.933,6.822 13.162,7.594 13.162,8.542 L13.162,9.317 L14.194,9.317 L14.194,8.543 C14.1918326,8.35987522 14.2636219,8.18361761 14.3931198,8.05411977 C14.5226176,7.92462192 14.6988752,7.85283261 14.882,7.855 L15.656,7.855 L15.656,6.822 L14.882,6.822 L14.882,6.822 Z M10.137,2.793 C9.59407567,2.24768157 8.855501,1.94231281 8.086,1.94498241 C7.3168453,1.94258021 6.57868025,2.24792849 6.036,2.793 C5.49056163,3.33551529 5.18484479,4.07370083 5.18698868,4.843 C5.18698868,5.62 5.488,6.348 6.035,6.895 C6.57792433,7.44031843 7.316499,7.74568719 8.086,7.74301759 C8.8551547,7.74541979 9.59331975,7.44007151 10.136,6.895 C10.6820522,6.35240579 10.9881581,5.6137901 10.9860113,4.844 C10.9881581,4.0742099 10.6820522,3.33559421 10.136,2.793 L10.137,2.793 Z M9.407,6.165 C9.05721925,6.51606155 8.58156839,6.7126591 8.086,6.71101042 C7.586,6.71101042 7.116,6.517 6.765,6.165 C6.41384396,5.81528247 6.21722935,5.33959034 6.21898814,4.844 C6.21898814,4.344 6.413,3.874 6.765,3.523 C7.11471753,3.17184396 7.59040966,2.97522935 8.086,2.97698814 C8.586,2.97698814 9.056,3.171 9.407,3.523 C9.759,3.875 9.953,4.343 9.953,4.843 C9.953,5.343 9.759,5.813 9.407,6.165 L9.407,6.165 Z" id="Shape"></path>
        </g>
    </g>
</svg>
