<?xml version="1.0" encoding="UTF-8"?>
<svg width="14px" height="16px" viewBox="0 0 14 16" version="1.1" xmlns="http://www.w3.org/2000/svg" xmlns:xlink="http://www.w3.org/1999/xlink">
    <!-- Generator: sketchtool 58 (101010) - https://sketch.com -->
    <title>CE4E38A0-8C6F-4465-BF68-2EAE1915BF6C</title>
    <desc>Created with sketchtool.</desc>
    <defs>
        <linearGradient x1="9.96556713%" y1="0%" x2="97.7427662%" y2="0%" id="linearGradient-1">
            <stop stop-color="#57B314" offset="0%"></stop>
            <stop stop-color="#1E9F04" offset="100%"></stop>
        </linearGradient>
        <linearGradient x1="9.96556713%" y1="0%" x2="97.7427662%" y2="0%" id="linearGradient-2">
            <stop stop-color="#57B314" offset="0%"></stop>
            <stop stop-color="#1E9F04" offset="100%"></stop>
        </linearGradient>
        <linearGradient x1="9.96556713%" y1="0%" x2="97.7427662%" y2="0%" id="linearGradient-3">
            <stop stop-color="#57B314" offset="0%"></stop>
            <stop stop-color="#1E9F04" offset="100%"></stop>
        </linearGradient>
        <linearGradient x1="9.96556713%" y1="0%" x2="97.7427662%" y2="0%" id="linearGradient-4">
            <stop stop-color="#57B314" offset="0%"></stop>
            <stop stop-color="#1E9F04" offset="100%"></stop>
        </linearGradient>
        <linearGradient x1="9.96556713%" y1="0%" x2="97.7427662%" y2="0%" id="linearGradient-5">
            <stop stop-color="#57B314" offset="0%"></stop>
            <stop stop-color="#1E9F04" offset="100%"></stop>
        </linearGradient>
        <linearGradient x1="9.96556713%" y1="0%" x2="97.7427662%" y2="0%" id="linearGradient-6">
            <stop stop-color="#57B314" offset="0%"></stop>
            <stop stop-color="#1E9F04" offset="100%"></stop>
        </linearGradient>
    </defs>
    <g id="Page-1" stroke="none" stroke-width="1" fill="none" fill-rule="evenodd">
        <g id="Dice" transform="translate(-2239.000000, -407.000000)" fill-rule="nonzero">
            <g id="menu" transform="translate(1659.000000, 66.000000)">
                <g id="Group-13-Copy-2" transform="translate(570.000000, 53.000000)">
                    <g id="Group-25" transform="translate(10.000000, 288.000000)">
                        <g id="icon-provabyfair" transform="translate(-0.000000, 0.000000)">
                            <path d="M13.3924366,2.75745809 C11.1953216,2.15544639 8.98529435,1.21805848 7.00126316,0.0466588694 C6.89587524,-0.0155633528 6.76509942,-0.0155633528 6.65974269,0.0466588694 C4.61847953,1.2517115 2.52787524,2.13838596 0.268382066,2.75745809 C0.122417154,2.79741131 0.0212397661,2.93008967 0.0212397661,3.08145029 L0.0212397661,6.51368421 C0.0212397661,10.0481248 1.65177388,12.3876803 3.01966472,13.7279064 C4.4922885,15.1708694 6.20768811,15.9688421 6.83050292,15.9688421 C7.45325536,15.9688421 9.16865497,15.1708694 10.6412788,13.7279064 C12.0091384,12.3877115 13.6395789,10.0481559 13.6395789,6.51368421 L13.6395789,3.0814191 C13.6395789,2.93008967 13.5384016,2.79741131 13.3924366,2.75745809 Z M12.9677661,6.51365302 C12.9677661,9.81479922 11.4469552,11.9978791 10.1710721,13.248 C8.72293177,14.6669474 7.17461209,15.2969669 6.83050292,15.2969669 C6.48639376,15.2969669 4.93798051,14.6669474 3.48980897,13.248 C2.21395712,11.997848 0.693083821,9.81479922 0.693083821,6.51365302 L0.693083821,3.33642105 C2.85380117,2.72293177 4.86605848,1.86676023 6.8305653,0.725146199 C8.7460117,1.83647563 10.8586667,2.73522027 12.9677661,3.3362963 L12.9677661,6.51365302 Z" id="Shape" fill="url(#linearGradient-1)"></path>
                            <path d="M3.85303704,3.29883821 C3.78504483,3.12620663 3.59001949,3.04140351 3.41735673,3.1094269 C2.81727875,3.34587135 2.20135673,3.56350877 1.58671345,3.75631969 C1.44664327,3.8002963 1.35132943,3.93004288 1.35132943,4.07681871 L1.35132943,5.3740039 C1.35132943,5.55951657 1.50175439,5.70991033 1.68723587,5.70991033 C1.87271735,5.70991033 2.0231423,5.55951657 2.0231423,5.3740039 L2.0231423,4.32230799 C2.57453411,4.14390643 3.12533333,3.9465731 3.66362573,3.73445614 C3.83625731,3.66649513 3.92106043,3.47146979 3.85303704,3.29883821 Z" id="Shape" fill="url(#linearGradient-2)"></path>
                            <path d="M4.4911345,3.3625575 C4.53620273,3.3625575 4.58195712,3.35348148 4.62584016,3.33433138 L4.63201559,3.33164912 C4.80196491,3.25716959 4.87850292,3.05933723 4.80402339,2.88945029 C4.72948148,2.71950097 4.53052632,2.64261988 4.36076413,2.71703704 L4.35533723,2.71937622 C4.18529435,2.79363743 4.10850682,2.99131384 4.18276803,3.16129435 C4.23787914,3.28748538 4.36154386,3.3625575 4.4911345,3.3625575 Z" id="Shape" fill="url(#linearGradient-3)"></path>
                            <path d="M10.832655,10.8314386 C10.6774269,10.7299805 10.469271,10.773614 10.3676881,10.9289045 C10.090885,11.352577 9.76614425,11.7582846 9.40235478,12.1346433 C9.10318908,12.4441014 8.77900975,12.732538 8.43883041,12.9918752 C8.29133723,13.1043431 8.26295517,13.3151189 8.37539181,13.4626745 C8.44154386,13.5493489 8.54156725,13.5949474 8.64274464,13.5949474 C8.71379337,13.5949474 8.78537232,13.5725224 8.84619103,13.5261131 C9.2131306,13.2463158 9.56276023,12.9352671 9.88531774,12.6016062 C10.2786433,12.1947758 10.6301442,11.7556335 10.9301209,11.2963743 C11.0316413,11.1410526 10.9879454,10.9328967 10.832655,10.8314386 Z" id="Shape" fill="url(#linearGradient-4)"></path>
                            <path d="M7.65872904,13.5186901 L7.63945419,13.5300429 C7.47892398,13.6230175 7.42406238,13.8284912 7.51700585,13.9890214 C7.57929045,14.0966238 7.69203899,14.156694 7.80803119,14.156694 C7.86510721,14.156694 7.92305653,14.1421287 7.97598441,14.1114074 L7.99822222,14.0983392 C8.15831579,14.0045848 8.21208577,13.7988304 8.11833138,13.6387368 C8.02451462,13.4787057 7.81872904,13.4250292 7.65872904,13.5186901 Z" id="Shape" fill="url(#linearGradient-5)"></path>
                            <path d="M4.54078752,7.29883821 C4.33453411,7.09255361 4.06022612,6.97902534 3.76848343,6.97902534 C3.47674074,6.97902534 3.20240156,7.0925848 2.99605458,7.29883821 C2.57023002,7.72475634 2.57023002,8.41777778 2.99605458,8.84366472 L4.97955556,10.8271033 C5.18584016,11.0333255 5.46014815,11.146885 5.75192203,11.146885 C6.04369591,11.146885 6.3180039,11.0333255 6.52431969,10.8270409 L10.6650136,6.68631579 C11.090807,6.26030409 11.090807,5.56737622 10.6649513,5.14161404 C10.4586667,4.93532943 10.1843587,4.82180117 9.89255361,4.82180117 C9.60077973,4.82180117 9.32647173,4.93536062 9.12015595,5.14161404 L5.75189084,8.50987914 L4.54078752,7.29883821 Z M9.59522807,5.61668616 C9.67460429,5.53730994 9.78024172,5.49361404 9.8925848,5.49361404 C10.0049903,5.49361404 10.1105341,5.53730994 10.1899727,5.61668616 C10.3538713,5.7805848 10.3538713,6.04737622 10.1899103,6.21133723 L6.04927875,10.352 C5.96990253,10.4313762 5.86426511,10.4750721 5.75192203,10.4750721 C5.63957895,10.4750721 5.53394152,10.4313762 5.45453411,10.352 L3.47109552,8.36862378 C3.3071345,8.20466277 3.3071345,7.93787135 3.47103314,7.77397271 C3.55044055,7.69459649 3.65607797,7.65083821 3.76845224,7.65083821 C3.88082651,7.65083821 3.98640156,7.69453411 4.06577778,7.77391033 L5.51435478,9.22251852 C5.57738791,9.28548928 5.66278363,9.32088889 5.75189084,9.32088889 C5.84099805,9.32088889 5.92639376,9.28552047 5.98936452,9.22251852 L9.59522807,5.61668616 Z" id="Shape" fill="url(#linearGradient-6)"></path>
                        </g>
                    </g>
                </g>
            </g>
        </g>
    </g>
</svg>