<svg xmlns="http://www.w3.org/2000/svg" width="16" height="15" viewBox="0 0 16 15">
    <g fill="#FFF" fill-rule="evenodd">
        <path d="M1.127 9.455c.17.829.904 1.454 1.782 1.454s1.613-.625 1.781-1.454H1.127zm1.782 2.181c-1.403 0-2.545-1.141-2.545-2.545v-.364h5.09v.364c0 1.404-1.142 2.545-2.545 2.545zM11.31 8c.168.83.903 1.455 1.781 1.455.878 0 1.612-.626 1.781-1.455H11.31zm1.781 2.182c-1.404 0-2.545-1.142-2.545-2.546v-.363h5.09v.363c0 1.404-1.142 2.546-2.545 2.546z"/>
        <path d="M5.09 9.09c-.14 0-.274-.081-.333-.22L2.91 4.56 1.061 8.87c-.078.185-.293.27-.477.192-.185-.08-.27-.293-.19-.478l2.181-5.09c.114-.268.554-.268.668 0l2.182 5.09c.079.185-.006.399-.19.478-.047.02-.096.029-.144.029M15.273 7.636c-.141 0-.275-.082-.334-.22l-1.848-4.31-1.848 4.31c-.079.185-.294.27-.477.191-.185-.079-.27-.293-.19-.478l2.181-5.09c.114-.267.554-.267.668 0l2.182 5.09c.079.185-.006.399-.191.478-.047.02-.095.03-.143.03M9.213 1.995c-.176 0-.331-.129-.359-.308-.03-.199.106-.384.304-.415l3.434-.528c.2-.032.384.106.414.304.03.2-.105.385-.304.415l-3.433.528c-.018.003-.037.004-.056.004M3.349 2.898c-.177 0-.332-.129-.36-.309-.03-.198.106-.384.304-.414l3.56-.548c.2-.03.384.106.415.304.03.199-.105.384-.304.415l-3.56.547c-.018.003-.037.005-.055.005M7.962 12.364c-.2 0-.364-.163-.364-.364V2.545c0-.2.163-.363.364-.363.2 0 .364.163.364.363V12c0 .2-.163.364-.364.364"/>
        <path d="M6.218 13.818h3.563c-.168-.829-.903-1.454-1.78-1.454-.88 0-1.614.625-1.783 1.454zm4.328.727H5.455v-.363c0-1.404 1.142-2.546 2.545-2.546s2.546 1.142 2.546 2.546v.363z"/>
        <path d="M11.273 14.545H4.727c-.2 0-.363-.162-.363-.363 0-.2.163-.364.363-.364h6.546c.2 0 .363.163.363.364 0 .2-.163.363-.363.363M8 .727c-.194 0-.377.076-.514.213-.284.284-.284.745 0 1.029.275.274.753.274 1.028 0 .284-.284.284-.745 0-1.029C8.377.803 8.194.727 8 .727M8 2.91c-.388 0-.754-.151-1.028-.426-.568-.567-.568-1.49 0-2.057.549-.55 1.507-.55 2.056 0 .568.567.568 1.49 0 2.057-.274.275-.64.426-1.028.426M13.455.727c-.094 0-.187.036-.258.106-.141.143-.141.373 0 .515.143.142.372.142.515 0 .141-.142.141-.372 0-.515-.071-.07-.164-.106-.257-.106m0 1.454c-.28 0-.559-.106-.772-.318-.426-.426-.426-1.118 0-1.544.425-.424 1.118-.424 1.543 0 .426.426.426 1.118 0 1.544-.213.212-.492.318-.771.318M2.545 2.182c-.093 0-.186.035-.257.106-.141.143-.141.372 0 .515.143.142.372.142.515 0 .141-.143.141-.372 0-.515-.071-.07-.164-.106-.258-.106m0 1.454c-.279 0-.558-.107-.771-.319-.426-.425-.426-1.118 0-1.543.425-.425 1.118-.425 1.543 0 .426.425.426 1.118 0 1.543-.213.212-.492.319-.772.319"/>
    </g>
</svg>
