<?xml version="1.0" encoding="UTF-8"?>
<svg width="16px" height="16px" viewBox="0 0 16 16" version="1.1" xmlns="http://www.w3.org/2000/svg" xmlns:xlink="http://www.w3.org/1999/xlink">
    <!-- Generator: sketchtool 58 (101010) - https://sketch.com -->
    <title>DD630369-F008-46E8-B76E-B52E6E19544C</title>
    <desc>Created with sketchtool.</desc>
    <g id="Page-1" stroke="none" stroke-width="1" fill="none" fill-rule="evenodd">
        <g id="Dice" transform="translate(-1738.000000, -404.000000)" fill="#FFFFFF" fill-rule="nonzero">
            <g id="menu" transform="translate(1659.000000, 66.000000)">
                <g id="Group-13" transform="translate(0.000000, 52.000000)">
                    <g id="Group-19-Copy-2" transform="translate(79.000000, 286.000000)">
                        <g id="Group-23">
                            <g id="home-run">
                                <path d="M15.5843506,6.9592285 C15.5838623,6.95886231 15.5834961,6.95837403 15.5831299,6.95800781 L9.0563965,0.431518563 C8.77819825,0.15319825 8.40832519,0 8.01489256,0 C7.62145997,0 7.25158691,0.15319825 6.97326659,0.431518563 L0.449951188,6.95471191 C0.447753906,6.95690919 0.445434563,6.9592285 0.443359375,6.96142578 C-0.127929687,7.53601075 -0.126953125,8.46826172 0.446167,9.04138184 C0.708007813,9.30334472 1.05371094,9.45495606 1.42346191,9.47094725 C1.43859863,9.47241212 1.45373534,9.47314453 1.46899413,9.47314453 L1.72900391,9.47314453 L1.72900391,14.2761231 C1.72900391,15.2266846 2.50244141,16 3.45300294,16 L6.00646972,16 C6.26538088,16 6.47521972,15.7900391 6.47521972,15.53125 L6.47521972,11.765625 C6.47521972,11.3319092 6.828125,10.979126 7.26184081,10.979126 L8.76794434,10.979126 C9.20166016,10.979126 9.55444338,11.3319092 9.55444338,11.765625 L9.55444338,15.53125 C9.55444338,15.7900391 9.76428222,16 10.0231934,16 L12.5766602,16 C13.5273438,16 14.3006592,15.2266846 14.3006592,14.2761231 L14.3006592,9.47314453 L14.5418701,9.47314453 C14.9351807,9.47314453 15.3050537,9.31994628 15.5834961,9.04150391 C16.1572266,8.46752931 16.1574707,7.53356934 15.5843506,6.9592285 L15.5843506,6.9592285 Z M14.9205322,8.37866213 C14.8193359,8.47985841 14.6848144,8.53564453 14.5418701,8.53564453 L13.8319092,8.53564453 C13.5729981,8.53564453 13.3631592,8.74548341 13.3631592,9.00439453 L13.3631592,14.2761231 C13.3631592,14.7097168 13.010376,15.0625 12.5766602,15.0625 L10.4919434,15.0625 L10.4919434,11.765625 C10.4919434,10.8150635 9.71862794,10.041626 8.76794434,10.041626 L7.26184081,10.041626 C6.31115722,10.041626 5.53771972,10.8150635 5.53771972,11.765625 L5.53771972,15.0625 L3.45300294,15.0625 C3.01940919,15.0625 2.66650391,14.7097168 2.66650391,14.2761231 L2.66650391,9.00439453 C2.66650391,8.74548341 2.45666503,8.53564453 2.19775391,8.53564453 L1.5,8.53564453 C1.49267578,8.53515625 1.48547362,8.53479003 1.47802734,8.53466797 C1.33837891,8.53222656 1.20739747,8.47680663 1.10925294,8.37854003 C0.900512687,8.16979981 0.900512687,7.83007813 1.10925294,7.62121581 C1.109375,7.62121581 1.109375,7.62109375 1.10949706,7.62097169 L1.10986328,7.62060547 L7.63635253,1.09436034 C7.73742675,0.993164062 7.87182619,0.9375 8.01489256,0.9375 C8.15783691,0.9375 8.29223631,0.993164062 8.39343262,1.09436034 L14.918457,7.61926269 C14.9194336,7.62023925 14.9205322,7.62121581 14.9215088,7.62219238 C15.1291504,7.83129881 15.1287842,8.17028809 14.9205322,8.37866213 Z" id="Shape"></path>
                            </g>
                        </g>
                    </g>
                </g>
            </g>
        </g>
    </g>
</svg>