<?xml version="1.0" encoding="UTF-8"?>
<svg width="34px" height="14px" viewBox="0 0 34 14" version="1.1" xmlns="http://www.w3.org/2000/svg" xmlns:xlink="http://www.w3.org/1999/xlink">
    <!-- Generator: sketchtool 58 (101010) - https://sketch.com -->
    <title>7AE9863A-95E5-4B30-B6FA-07CE2D49E46C</title>
    <desc>Created with sketchtool.</desc>
    <g id="Page-1" stroke="none" stroke-width="1" fill="none" fill-rule="evenodd">
        <g id="Dice" transform="translate(-2445.000000, -408.000000)" fill="#FFFFFF">
            <g id="menu" transform="translate(1659.000000, 66.000000)">
                <g id="Group-13-Copy-2" transform="translate(570.000000, 53.000000)">
                    <g id="Group-27" transform="translate(204.000000, 289.000000)">
                        <g id="Logo" transform="translate(12.000000, 0.000000)">
                            <path d="M0.0475396825,8.76154762 L0.0475396825,8.07345238 L1.85428571,8.07345238 L1.85428571,8.87424603 C1.85428571,9.60718254 2.13603175,9.97384921 2.69912698,9.97384921 L2.70626984,9.97384921 C3.26420635,9.97384921 3.54357143,9.60837302 3.54357143,8.87781746 C3.54357143,8.46035714 3.42333333,8.0690873 3.18206349,7.70361111 C2.94119048,7.33813492 2.65309524,7.00400794 2.31777778,6.70123016 L1.41222222,5.76194444 C1.03801587,5.43337302 0.724920635,5.02623016 0.472936508,4.5409127 C0.220555556,4.05519841 0.0943650794,3.5175 0.0943650794,2.92781746 C0.0943650794,2.02027778 0.332460317,1.32424603 0.808650794,0.838928571 C1.28444444,0.353611111 1.93126984,0.111150794 2.74833333,0.111150794 C3.56539683,0.111150794 4.19277778,0.353611111 4.63087302,0.838531746 C5.06896825,1.32345238 5.28801587,2.01948413 5.28801587,2.92662698 L5.28801587,3.28654762 L3.62174603,3.28654762 L3.62174603,2.8175 C3.62174603,2.08218254 3.32730159,1.7143254 2.73801587,1.7143254 C2.14873016,1.7143254 1.85428571,2.08257937 1.85428571,2.81829365 C1.85428571,3.12623016 1.91857143,3.41988095 2.04674603,3.69924603 C2.17492063,3.97861111 2.34119048,4.23019841 2.54555556,4.45480159 C2.74992063,4.67900794 2.97531746,4.90083333 3.22134921,5.11988095 C3.46738095,5.3393254 3.71063492,5.5690873 3.95031746,5.80916667 C4.19,6.04924603 4.4118254,6.30599206 4.61539683,6.58019841 C4.81857143,6.85400794 4.98404762,7.17781746 5.1118254,7.55083333 C5.23960317,7.92424603 5.30349206,8.32980159 5.30349206,8.76829365 C5.30349206,9.67345238 5.07928571,10.3678968 4.63087302,10.851627 C4.18246032,11.3353571 3.54952381,11.5774206 2.73206349,11.5774206 C1.91460317,11.5774206 1.26261905,11.3349603 0.776507937,10.8500397 C0.290396825,10.365119 0.0475396825,9.66869048 0.0475396825,8.76154762" id="Fill-1"></path>
                            <path d="M8.06444444,5.64083333 L8.90134921,5.64083333 C9.18785714,5.64083333 9.40293651,5.55988095 9.5465873,5.39837302 C9.68984127,5.23686508 9.76166667,4.96305556 9.76166667,4.57694444 L9.76166667,2.89559524 C9.76166667,2.50948413 9.68984127,2.2372619 9.5465873,2.07813492 C9.40293651,1.91900794 9.18785714,1.83964286 8.90134921,1.83964286 L8.06444444,1.83964286 L8.06444444,5.64083333 Z M6.30452381,11.4519444 L6.30452381,0.236468254 L8.89738095,0.236468254 C10.6465873,0.236468254 11.5215873,1.16305556 11.5215873,3.01583333 L11.5215873,4.47257937 C11.5215873,6.32019841 10.647381,7.24440476 8.89936508,7.24440476 L8.06444444,7.24440476 L8.06444444,11.4519444 L6.30452381,11.4519444 Z" id="Fill-4"></path>
                            <path d="M14.1025397,5.28888889 L14.7906349,5.28888889 C15.1453968,5.28888889 15.4100794,5.19761905 15.5846825,5.01507937 C15.7592857,4.83253968 15.8465873,4.52777778 15.8465873,4.1 L15.8465873,2.99722222 C15.851746,2.22579365 15.5545238,1.83968254 14.9549206,1.83968254 L14.1025397,1.83968254 L14.1025397,5.28888889 Z M12.342619,11.4519841 L12.342619,0.236111111 L14.9981746,0.236111111 C15.9037302,0.236111111 16.5652381,0.447619048 16.9815079,0.870238095 C17.3981746,1.29285714 17.6065079,1.94246032 17.6065079,2.81904762 L17.6065079,3.7031746 C17.6065079,4.85634921 17.222381,5.61547619 16.454127,5.98055556 C17.2326984,6.30952381 17.6219841,7.10515873 17.6219841,8.36785714 L17.6219841,10.0936508 L17.6219841,10.1638889 C17.6219841,10.7365079 17.6846825,11.165873 17.8096825,11.4519841 L16.0255556,11.4519841 C15.9219841,11.1345238 15.867619,10.6765873 15.8624603,10.0777778 L15.8624603,8.32103175 C15.8624603,7.81111111 15.772381,7.4452381 15.592619,7.22420635 C15.4124603,7.00277778 15.1192063,6.89246032 14.7124603,6.89246032 L14.1025397,6.89246032 L14.1025397,11.4519841 L12.342619,11.4519841 Z" id="Fill-6"></path>
                            <polygon id="Fill-8" points="18.7797619 11.4520635 20.5396825 11.4520635 20.5396825 0.236190476 18.7797619 0.236190476"></polygon>
                            <path d="M23.5820238,9.84873016 L24.5911508,9.84873016 C24.8986905,9.84873016 25.1280556,9.7665873 25.279246,9.60230159 C25.4304365,9.43801587 25.5062302,9.15269841 25.5062302,8.74595238 L25.5062302,7.7681746 C25.5062302,7.25706349 25.4189286,6.90269841 25.2439286,6.70468254 C25.0693254,6.50626984 24.7788492,6.40746032 24.3721032,6.40746032 L23.5820238,6.40746032 L23.5820238,9.84873016 Z M23.5820238,4.80388889 L24.2732937,4.80388889 C24.629246,4.80388889 24.895119,4.71261905 25.0705159,4.53007937 C25.2463095,4.34753968 25.3340079,4.04515873 25.3340079,3.62293651 L25.3340079,2.99714286 C25.3391667,2.22571429 25.040754,1.83960317 24.438373,1.83960317 L23.5820238,1.83960317 L23.5820238,4.80388889 Z M21.8221032,11.4523016 L21.8221032,0.236428571 L24.481627,0.236428571 C25.3887698,0.236428571 26.0510714,0.447539683 26.4681349,0.869761905 C26.8851984,1.29198413 27.0939286,1.94119048 27.0939286,2.81738095 L27.0939286,3.21619048 C27.0939286,4.36857143 26.713373,5.12214286 25.9518651,5.47650794 C26.8280556,5.82055556 27.265754,6.62134921 27.265754,7.87769841 L27.265754,8.79277778 C27.265754,9.65825397 27.0391667,10.3181746 26.5855952,10.771746 C26.131627,11.2253175 25.4669444,11.4523016 24.5911508,11.4523016 L21.8221032,11.4523016 Z" id="Fill-10"></path>
                            <polygon id="Fill-11" points="28.3217857 11.4521032 28.3217857 0.236230159 33.1241667 0.236230159 33.1241667 1.83980159 30.0817063 1.83980159 30.0817063 4.96043651 32.498373 4.96043651 32.498373 6.56361111 30.0817063 6.56361111 30.0817063 9.84853175 33.1241667 9.84853175 33.1241667 11.4521032"></polygon>
                            <polygon id="Fill-12" points="0 13.7357937 33.1488095 13.7357937 33.1488095 12.1786508 0 12.1786508"></polygon>
                        </g>
                    </g>
                </g>
            </g>
        </g>
    </g>
</svg>