<svg xmlns="http://www.w3.org/2000/svg" width="18" height="16" viewBox="0 0 18 16">
    <g fill="#FFF" fill-rule="evenodd">
        <path d="M6 10.49l5.787 3.978.213-.112V1.073l-.213-.112L6 4.94v5.55zm5.757 4.906c-.084 0-.17-.025-.242-.075l-6.186-4.253c-.117-.08-.186-.212-.186-.353v-6c0-.142.07-.274.186-.354L11.515.108c.131-.09.3-.1.442-.026l.671.354c.14.073.23.22.23.379v13.799c0 .16-.09.306-.23.38l-.67.353c-.064.033-.133.05-.2.05zM3 10.286c-1.286 0-2.615-.936-2.615-2.501v-.141c0-1.565 1.33-2.501 2.615-2.501.237 0 .429.192.429.428C3.429 5.808 3.237 6 3 6c-.73 0-1.758.51-1.758 1.644v.14C1.242 8.92 2.27 9.43 3 9.43c.237 0 .429.192.429.428 0 .237-.192.429-.429.429M15.877 12.85c-.098 0-.196-.033-.276-.1-.18-.154-.204-.424-.05-.605 1.026-1.214 1.592-2.842 1.592-4.582 0-1.783-.62-3.498-1.7-4.706-.158-.176-.143-.447.033-.605.177-.158.448-.142.605.034 1.22 1.363 1.92 3.286 1.92 5.277 0 1.943-.638 3.767-1.796 5.136-.085.1-.206.151-.328.151"/>
        <path d="M14.627 10.292c-.098 0-.197-.034-.276-.102-.181-.153-.204-.423-.05-.604.459-.542.711-1.274.711-2.058 0-.803-.277-1.574-.76-2.113-.158-.176-.143-.447.034-.606.177-.156.448-.141.605.035.63.705.979 1.658.979 2.684 0 .988-.325 1.915-.916 2.612-.085.1-.206.152-.327.152M3.429 10.286h1.714V5.143H3.429v5.143zm2.142.857H3c-.237 0-.429-.192-.429-.429v-6c0-.236.192-.428.429-.428h2.571c.237 0 .429.192.429.428v6c0 .237-.192.429-.429.429z"/>
    </g>
</svg>
